<svg id="Слой_1" data-name="Слой 1" xmlns="http://www.w3.org/2000/svg" viewBox="0 0 1256.17 284.94">
  <g>
    <path d="M740.69,130.7q-3.8-1.47-8.17-2.75A190.09,190.09,0,0,0,701,122.06q-8.76-1-14.62-1.93a65.2,65.2,0,0,1-8.79-1.89c-2.36-1.62-6.36-2.62-5.36-5.62,1-7,10-4,14.6-5.56a38.63,38.63,0,0,1,7.2.64,154.63,154.63,0,0,0,35.58,3l3.72-.15c16.94-.66,23.5-22.44,9.68-32.24l-.4-.28q-17.62-12.36-44.37-14.42c-3.57-.28-7.26-.41-11.07-.41-28.94-.6-65.94,5.4-73.94,38.4-.13.42-.25.85-.37,1.27a22.93,22.93,0,0,1-4.28,8.63,43.66,43.66,0,0,1-7.87,7.52c-10.81,8-21-5.82-25.07-12.19a2.57,2.57,0,0,1,.15-3c5.77-7.38,5.55-19.06-3.57-25.52l-.42-.3q-17.61-12.36-44.37-14.42c-3.57-.28-7.26-.41-11.07-.41-28.94-.6-65.94,5.4-73.94,38.4a38.66,38.66,0,0,0,6.41,35.3,2.49,2.49,0,0,1,.27,2.74c-6.57,12.3-13.46,14.55-19.27,13a7.81,7.81,0,0,1-5.6-7.59v-4.33a18.58,18.58,0,0,0-18.58-18.58H354a5,5,0,0,1-5-5v-4.22c3.42-10,17.42-3,25.21-5H418a18.58,18.58,0,0,0,18.58-18.59V82.66A18.58,18.58,0,0,0,418,64.08H407.48a120.26,120.26,0,0,0-16.86,1.1c-27.79,3.93-58.19-5.38-83.23,3.4a15.32,15.32,0,0,0-9,8.5l0,.08a21.4,21.4,0,0,0-1.68,8.33V128.6c-.18,25-9.18,50-1.18,76,3,13,20,20,33.07,16.45q5.06-.84,10.1-1.5c23.58-3.1,47.2-3.28,70.79,1.37,6.68.53,10.78.57,10.78.57a18.58,18.58,0,0,0,18.58-18.58v-6.69a18.58,18.58,0,0,0-18.59-18.58H354a5,5,0,0,1-5-5v-4.22a5,5,0,0,1,5-5H405.6a18.49,18.49,0,0,0,14-6.35,2.57,2.57,0,0,1,3.8-.19c9.13,9,19.89-4.15,26.36-14.53a2.44,2.44,0,0,1,3.7-.53q1.68,1.53,3.57,2.94,15.92,11.78,47.74,15.47,20,2.17,26.76,4.45t6.75,6.2c0,2.09-1.78,3.67-5.34,4.72s-8.9,1.57-16,1.57a56,56,0,0,1-12-1.13,142,142,0,0,0-36.09-3.66l-2.33.09c-18.36.66-25.12,24.49-9.82,34.67l.28.19q20.81,13.69,58.36,13.7a150.87,150.87,0,0,0,33.85-3.48q3.76-.87,7.3-2c13.92-4,26.92-10,36.92-21,19-22,3-56-23.49-63.92q-3.79-1.47-8.17-2.75a190.09,190.09,0,0,0-31.57-5.89c-5.84-.65-10.72-1.29-14.61-1.93a65.06,65.06,0,0,1-8.8-1.89c-2.36-1.62-6.36-2.62-5.36-5.62,1-7,10-4,14.6-5.56a38.55,38.55,0,0,1,7.2.64,154.63,154.63,0,0,0,35.58,3l3.73-.15a18.57,18.57,0,0,0,4.37-.69,2.56,2.56,0,0,1,2.77.91c1.82,2.45,4,5.2,6.14,7.78,3.32,3.87,5.67,7.76,9.54,10.13,5.19,3.17,10,3.08,14.31,1.23a1.63,1.63,0,0,1,.31-.11c3.75-1,9.76-2.3,13.13-1.92a2.34,2.34,0,0,1,1.87,1.37,37.11,37.11,0,0,0,5.92,9.16,43.32,43.32,0,0,0,7,6.4q15.91,11.78,47.74,15.47,20,2.17,26.76,4.45t6.75,6.2c0,2.09-1.78,3.67-5.34,4.72s-8.91,1.57-16,1.57a56,56,0,0,1-12-1.13,142,142,0,0,0-36.09-3.66h-.24c-17,.61-25,13.7-17.31,28.83a14.18,14.18,0,0,0,5.68,6.11q20.79,13.69,58.36,13.7A150.87,150.87,0,0,0,720,217.62q3.76-.87,7.3-2c13.92-4,26.92-10,36.92-21C783.18,172.62,767.18,138.62,740.69,130.7Zm-136-3.94a37.32,37.32,0,0,0,5.22-5.22,1.44,1.44,0,0,1,2.51.57c.13.59.29,1.17.46,1.75a.33.33,0,0,1-.15.37,33.51,33.51,0,0,1-7.76,3.1A.33.33,0,0,1,604.74,126.76Z" style="fill: #b22b2b"/>
    <path d="M921.63,77.59a14.11,14.11,0,0,1,4.14-10l.05,0a11.76,11.76,0,0,1,10-3.18c29.83,4.16,58.81-.47,88.85.16,2.44.32,4.8.75,7.08,1.27a67.55,67.55,0,0,1,18.5,7q2.05,1.17,4,2.49c11.24,11.33,20.24,26.33,21.69,42.58a58.1,58.1,0,0,1-.19,5.95q-1.7,20.81-15.64,32.87-1.74,1.5-3.68,2.88c-7.87,14.05,10.13,33.05,19.27,46.25.88,1.61,1.65,3.05,2.29,4.25l2,3.83a5.62,5.62,0,0,1,.45,2.47,4.28,4.28,0,0,1-1.47,3,4.72,4.72,0,0,1-3.48,1.46h-51q-6.75,0-9.45-5.62l-19.79-44.53H976.28V214.8a6.15,6.15,0,0,1-6.08,6.07H935.77a14.14,14.14,0,0,1-14.14-14.14V167.92a249.2,249.2,0,0,0,0-51.52V77.59Zm54.65,36.65v5.91a9,9,0,0,0,9,9h19.15a9.36,9.36,0,0,0,7.65-3.26,12.43,12.43,0,0,0,2.7-8.21,14.83,14.83,0,0,0-2.59-8.66,8.82,8.82,0,0,0-7.76-3.7c-8.91.58-17.91-1.42-25.5,2.75A8.61,8.61,0,0,0,976.28,114.24Z" style="fill: #b22b2b"/>
    <path d="M274.3,50.06a81.11,81.11,0,0,0-39.21-29.34,141.83,141.83,0,0,0-26.42-6.51h-.1a101.29,101.29,0,0,0-17-1c-26.55.47-51,.4-79.13-1.06a28.58,28.58,0,0,0-8,1A30.11,30.11,0,0,0,88.68,23.73a29,29,0,0,0-3.35,5.49c-4.85,33.64,2.15,68.64-.49,103.28.08,3.55.13,7.11.15,10.65.06,10.65-.17,21.25-.88,31.78,0,3.73,0,7.42.24,11,1.13,17.86,6.63,32.79,28.13,35.65,2.3-.38,4.59-.7,6.87-1s4.57-.52,6.85-.71a2.68,2.68,0,0,1,2.88,2.88,52.4,52.4,0,0,1-1.27,8.89c-2.52,9.78,10.66,16.33,12.12,5.2.74-5.66-.63-9.74-1.54-14.5a2.7,2.7,0,0,1,2.58-3.2c2,0,4.05-.06,6.07-.06A3,3,0,0,1,150,222.3c-.84,9.21-2.25,22.42-4.09,30.7-3.06,13.79,1,20.77,9.53,19.75s12.6-11.41,9.71-25.53c-1.73-8.43-2.61-17.82-1.88-25a3,3,0,0,1,3-2.69c11.63.41,23.29,1,35.08.86q5.56-.61,10.81-1.54,26.23-4.63,44.76-17a70.24,70.24,0,0,0,14.14-12.55,68,68,0,0,0,5.56-7.5c18.84-29.92,15.84-66.92,11-99.66-.58-3.05-1.27-6-2.1-8.86A74.81,74.81,0,0,0,274.3,50.06ZM139.43,63.14a7.2,7.2,0,0,1,10.79-6.23s3.72,2.15,9.79,5.5c10.16,5.07,20,10.4,29.54,15.91a3.12,3.12,0,0,1,.3,5.21c-2.91,2.17-6.2,4.58-9.93,7.26-14.32,10.3-29.46,4.48-40.19-2.84a3.39,3.39,0,0,1-1.5-3c.23-3.52.54-7,1-10.58C139.41,67.44,139.43,63.14,139.43,63.14ZM243.62,123c-6.14,2.82-12.14,7.82-18,11.26q-4,2.79-8,5.48a438,438,0,0,1-67.43,36.94,7.21,7.21,0,0,1-10.8-6.24s0-4.29-.07-11.15c-.88-13.71.12-28.71-1.43-42.28q-.12-3.61-.18-7.18-.1-5.45-.05-10.84a3.41,3.41,0,0,1,5.09-2.92c3,1.69,6.42,3.62,10.41,5.75a26.38,26.38,0,0,0,10.24,3.29A15.84,15.84,0,0,0,171,104c4.28-1.78,7.13-5.1,9.25-7.06,3.06-2.81,10.59-9.48,14.59-13a3.14,3.14,0,0,1,3.67-.35c10.22,6,20.28,12.25,30.37,18.51l6.07,3.77c4.52,3,11.52,4,12.35,11A6.89,6.89,0,0,1,243.62,123Z" style="fill: #b22b2b"/>
    <path d="M898,177.66H831.83a5,5,0,0,1-5-5v-4.22a5,5,0,0,1,5-5h51.55A18.59,18.59,0,0,0,902,144.9v-4.21a18.58,18.58,0,0,0-18.59-18.58H831.83a5,5,0,0,1-5-5v-4.22a5,5,0,0,1,5-5c6.66-.08,13.66-.08,20.23,0h43.7a18.59,18.59,0,0,0,18.59-18.59V82.66a18.58,18.58,0,0,0-18.59-18.58s-4,0-10.36.07c-32.91,4.71-64.91-1.29-97.86,1.61a21.43,21.43,0,0,0-13.08,19.73v36.27c.39,7.1.59,14.13.65,21.14v0a61.47,61.47,0,0,0,.89,9.86c2.62,15.15,3,30-1.78,44.43a13.59,13.59,0,0,0-.6,5.56h0c.48,4.8,2.37,9.43,6.68,12.66a26.63,26.63,0,0,0,5.73,3.59,30.42,30.42,0,0,0,20.32,2c3.37-.56,6.73-1.06,10.1-1.5q7.24-1,14.5-1.52a1.88,1.88,0,0,1,2,1.68,19.93,19.93,0,0,1-.9,8.54c-3.79,10.87-6.32,28.07,4.55,24.78s4.56-18,4-23.77a89.45,89.45,0,0,1,.11-10.06,1.88,1.88,0,0,1,1.82-1.78c3.36-.1,6.71-.12,10.07-.07a1.49,1.49,0,0,1,1.46,1.47,28.55,28.55,0,0,1-.36,6.12c-.89,3.7-.89,8.94,4.34,8.43s2-7.41.77-11.24a16.22,16.22,0,0,1-.61-2.84,1.49,1.49,0,0,1,1.54-1.7,191.39,191.39,0,0,1,27.43,3.33c6.68.53,10.78.57,10.78.57a18.58,18.58,0,0,0,18.58-18.58v-6.69A18.58,18.58,0,0,0,898,177.66Z" style="fill: #b22b2b"/>
    <path d="M1202.08,63.44H1088.45a19.39,19.39,0,0,0-18.74,14.28c-2.12,14.77,7.54,31.9,22.51,33.54a2,2,0,0,1,1.75,2.33,17.29,17.29,0,0,1-.73,2.85c-3.79,10.87-6.32,28.07,4.56,24.78s4.55-18,4-23.77c-.11-1.29-.12-3.14-.07-5.23A1.28,1.28,0,0,1,1103,111h13.49v88.51a22.22,22.22,0,0,0,22.21,22.22h13A22.21,22.21,0,0,0,1174,199.47V111h24.68a1.12,1.12,0,0,1,1.11,1.08,33.91,33.91,0,0,1-.33,7.22c-.9,3.7-.9,8.94,4.34,8.43s2-7.41.76-11.24a20.22,20.22,0,0,1-.78-4.48,1.11,1.11,0,0,1,1-1.2,19.44,19.44,0,0,0,16.76-19.25V82.89A19.44,19.44,0,0,0,1202.08,63.44Z" style="fill: #b22b2b"/>
    <circle cx="45.46" cy="62.71" r="9.19" style="fill: #b22b2b"/>
    <path d="M39.09,62.35c.27-1.9,1.28-5.4,5.12-6.44a1.23,1.23,0,0,1,1.32.47h0a1.18,1.18,0,0,1-.3,1.65,9.07,9.07,0,0,0-3.52,4.86,1.2,1.2,0,0,1-1.4.84l-.3-.07A1.19,1.19,0,0,1,39.09,62.35Z" style="fill: #ea4242"/>
    <circle cx="753.88" cy="235.12" r="9.19" style="fill: #b22b2b"/>
    <path d="M747.51,234.76c.28-1.9,1.28-5.4,5.13-6.44a1.21,1.21,0,0,1,1.31.47h0a1.19,1.19,0,0,1-.29,1.66,9,9,0,0,0-3.52,4.85,1.19,1.19,0,0,1-1.4.84l-.31-.07A1.19,1.19,0,0,1,747.51,234.76Z" style="fill: #ea4242"/>
    <circle cx="1099.29" cy="228.95" r="4.56" style="fill: #b22b2b"/>
    <path d="M1096.13,228.78a3.63,3.63,0,0,1,2.55-3.2.63.63,0,0,1,.65.23h0a.6.6,0,0,1-.15.83,4.52,4.52,0,0,0-1.75,2.41.57.57,0,0,1-.69.41l-.15,0A.59.59,0,0,1,1096.13,228.78Z" style="fill: #ea4242"/>
    <circle cx="1080.35" cy="237.59" r="2.72" style="fill: #b22b2b"/>
    <path d="M1078.46,237.48a2.17,2.17,0,0,1,1.52-1.91.37.37,0,0,1,.39.14h0a.35.35,0,0,1-.09.49,2.75,2.75,0,0,0-1,1.44.35.35,0,0,1-.41.25l-.09,0A.36.36,0,0,1,1078.46,237.48Z" style="fill: #ea4242"/>
    <circle cx="1112.43" cy="236.58" r="2.72" style="fill: #b22b2b"/>
    <path d="M1110.55,236.47a2.15,2.15,0,0,1,1.52-1.9.37.37,0,0,1,.39.13h0a.35.35,0,0,1-.09.49,2.7,2.7,0,0,0-1,1.44.36.36,0,0,1-.42.25l-.09,0A.34.34,0,0,1,1110.55,236.47Z" style="fill: #ea4242"/>
    <circle cx="914.69" cy="37.81" r="6.51" style="fill: #b22b2b"/>
    <path d="M910.18,37.56A5.16,5.16,0,0,1,913.81,33a.85.85,0,0,1,.93.33h0a.84.84,0,0,1-.21,1.17A6.44,6.44,0,0,0,912,37.94a.86.86,0,0,1-1,.6l-.22,0A.85.85,0,0,1,910.18,37.56Z" style="fill: #ea4242"/>
    <circle cx="1057.41" cy="57.47" r="4.21" style="fill: #b22b2b"/>
    <path d="M1054.5,57.31a3.32,3.32,0,0,1,2.34-3,.57.57,0,0,1,.61.21h0a.55.55,0,0,1-.14.76,4.12,4.12,0,0,0-1.61,2.23.55.55,0,0,1-.64.38l-.14,0A.53.53,0,0,1,1054.5,57.31Z" style="fill: #ea4242"/>
    <circle cx="1069.67" cy="44.88" r="2.85" style="fill: #b22b2b"/>
    <path d="M1067.69,44.76a2.27,2.27,0,0,1,1.59-2,.38.38,0,0,1,.41.14h0a.37.37,0,0,1-.09.52,2.76,2.76,0,0,0-1.09,1.5.37.37,0,0,1-.44.26l-.09,0A.37.37,0,0,1,1067.69,44.76Z" style="fill: #ea4242"/>
    <circle cx="598.65" cy="211.97" r="6.13" style="fill: #b22b2b"/>
    <path d="M594.4,211.73a4.86,4.86,0,0,1,3.42-4.29.79.79,0,0,1,.87.31h0a.78.78,0,0,1-.19,1.1,6,6,0,0,0-2.35,3.24.8.8,0,0,1-.93.56l-.2-.05A.79.79,0,0,1,594.4,211.73Z" style="fill: #ea4242"/>
    <circle cx="616.52" cy="227.64" r="5.96" style="fill: #b22b2b"/>
    <path d="M612.39,227.41a4.72,4.72,0,0,1,3.32-4.17.79.79,0,0,1,.86.3h0a.76.76,0,0,1-.2,1.07,5.92,5.92,0,0,0-2.28,3.15.77.77,0,0,1-.9.54l-.2,0A.78.78,0,0,1,612.39,227.41Z" style="fill: #ea4242"/>
    <circle cx="439.92" cy="42.03" r="5.36" style="fill: #b22b2b"/>
    <path d="M436.21,41.81a4.26,4.26,0,0,1,3-3.75.72.72,0,0,1,.77.27h0a.69.69,0,0,1-.18,1,5.32,5.32,0,0,0-2.05,2.83.69.69,0,0,1-.82.49l-.17,0A.7.7,0,0,1,436.21,41.81Z" style="fill: #ea4242"/>
    <circle cx="451.92" cy="52.66" r="3.4" style="fill: #b22b2b"/>
    <path d="M449.57,52.53a2.69,2.69,0,0,1,1.89-2.38.44.44,0,0,1,.49.17h0a.44.44,0,0,1-.11.61,3.37,3.37,0,0,0-1.3,1.8A.44.44,0,0,1,450,53l-.11,0A.43.43,0,0,1,449.57,52.53Z" style="fill: #ea4242"/>
    <circle cx="268.48" cy="218.32" r="7.02" style="fill: #b22b2b"/>
    <path d="M263.61,218.05a5.58,5.58,0,0,1,3.92-4.92.93.93,0,0,1,1,.36h0a.9.9,0,0,1-.22,1.26,6.84,6.84,0,0,0-2.69,3.72.9.9,0,0,1-1.07.63l-.23,0A.91.91,0,0,1,263.61,218.05Z" style="fill: #ea4242"/>
    <circle cx="278.31" cy="231.47" r="4.34" style="fill: #b22b2b"/>
    <path d="M275.3,231.3a3.45,3.45,0,0,1,2.42-3,.59.59,0,0,1,.62.22h0a.56.56,0,0,1-.14.79,4.23,4.23,0,0,0-1.66,2.29.56.56,0,0,1-.66.39l-.14,0A.55.55,0,0,1,275.3,231.3Z" style="fill: #ea4242"/>
    <circle cx="57.54" cy="181.35" r="4.94" style="fill: #b22b2b"/>
    <path d="M54.12,181.15a3.91,3.91,0,0,1,2.75-3.45.64.64,0,0,1,.71.25h0a.64.64,0,0,1-.16.89,4.84,4.84,0,0,0-1.89,2.6.63.63,0,0,1-.75.45l-.16,0A.64.64,0,0,1,54.12,181.15Z" style="fill: #ea4242"/>
    <circle cx="58.9" cy="90.28" r="5.11" style="fill: #b22b2b"/>
    <path d="M55.37,90.08a4,4,0,0,1,2.84-3.57.66.66,0,0,1,.73.25h0a.67.67,0,0,1-.16.93,5,5,0,0,0-2,2.69.66.66,0,0,1-.77.47l-.17,0A.65.65,0,0,1,55.37,90.08Z" style="fill: #ea4242"/>
    <circle cx="37.29" cy="106.62" r="2.64" style="fill: #b22b2b"/>
    <path d="M35.46,106.52a2.1,2.1,0,0,1,1.47-1.85.35.35,0,0,1,.38.13h0a.34.34,0,0,1-.09.48,2.61,2.61,0,0,0-1,1.39.33.33,0,0,1-.4.24l-.09,0A.32.32,0,0,1,35.46,106.52Z" style="fill: #ea4242"/>
    <path d="M205.13,24.64c14.67,2.44,53.71,12.87,63.73,48,.67,2.36.27,4.22-2,5.18h0c-2.45,1-3.11-.56-4.15-3-4.5-10.63-21.4-36.21-58.93-40.12a4.79,4.79,0,0,1-4.28-4.9l0-.53A4.81,4.81,0,0,1,205.13,24.64Z" style="fill: #e56565"/>
    <path d="M271.39,82.26c.59,1.58.19,3.33-1.4,3.92a2.75,2.75,0,0,1-3.62-1.85,2.87,2.87,0,0,1,1.48-3.89A2.65,2.65,0,0,1,271.39,82.26Z" style="fill: #e56565"/>
    <path d="M591.05,164.55c3,6.73,7,22-12.57,31.81a1.85,1.85,0,0,1-1.59,0h0a1.82,1.82,0,0,1-.31-3.1c4.43-3.34,12.46-11.68,7.51-25.93a3.78,3.78,0,0,1,2-4.7h0A3.77,3.77,0,0,1,591.05,164.55Z" style="fill: #e56565"/>
    <path d="M762.88,164.55c3,6.73,7,22-12.57,31.81a1.85,1.85,0,0,1-1.59,0h0a1.82,1.82,0,0,1-.31-3.1c4.43-3.34,12.46-11.68,7.51-25.93a3.78,3.78,0,0,1,2-4.7h0A3.77,3.77,0,0,1,762.88,164.55Z" style="fill: #e56565"/>
    <path d="M540.61,70.57c5.46.92,16.9,3.46,25.3,9.45a2,2,0,0,1,.64,2.58h0a2,2,0,0,1-2.53,1c-4.55-1.81-17.19-6.63-24.19-7.32a2.87,2.87,0,0,1-2.57-3h0A2.87,2.87,0,0,1,540.61,70.57Z" style="fill: #e56565"/>
    <path d="M713.2,72.1c5.46.92,16.9,3.46,25.3,9.45a2,2,0,0,1,.65,2.58h0a2,2,0,0,1-2.54,1c-4.55-1.81-17.18-6.63-24.19-7.32a2.85,2.85,0,0,1-2.56-3h0A2.85,2.85,0,0,1,713.2,72.1Z" style="fill: #e56565"/>
    <path d="M1016.31,71.4c7.33.59,21,2.45,30.31,8.27a2.35,2.35,0,0,1,.88,3h0a2.35,2.35,0,0,1-2.93,1.21c-4.47-1.66-15.83-5.19-28-3.65a4.46,4.46,0,0,1-5.06-4.11h0A4.45,4.45,0,0,1,1016.31,71.4Z" style="fill: #e56565"/>
    <path d="M393.27,70c7.05-.35,25.82-1,30.93,2.22a1.69,1.69,0,0,1,.38,2.53h0a1.7,1.7,0,0,1-1.6.56c-2.85-.55-12.28-1.93-29.38-.43A2.44,2.44,0,0,1,391,72.78h0A2.44,2.44,0,0,1,393.27,70Z" style="fill: #e56565"/>
    <path d="M872.76,70c7-.35,25.82-1,30.93,2.22a1.69,1.69,0,0,1,.38,2.53h0a1.7,1.7,0,0,1-1.6.56c-2.86-.55-12.28-1.93-29.38-.43a2.44,2.44,0,0,1-2.62-2.06h0A2.44,2.44,0,0,1,872.76,70Z" style="fill: #e56565"/>
    <path d="M1191.81,67.45c6.85-.21,21.23.47,25.18,9.55a1.49,1.49,0,0,1-.8,2h0a1.49,1.49,0,0,1-1.73-.41c-1.67-2-7.23-6.68-22.13-4.7a3.22,3.22,0,0,1-3.58-2.64h0A3.21,3.21,0,0,1,1191.81,67.45Z" style="fill: #e56565"/>
  </g>
</svg>
