<svg id="Слой_1" data-name="Слой 1" xmlns="http://www.w3.org/2000/svg" viewBox="0 0 1269.96 315.57">
  <g>
    <path d="M747.58,146q-3.8-1.47-8.16-2.75a190.49,190.49,0,0,0-31.57-5.89q-8.77-1-14.62-1.93a63.26,63.26,0,0,1-8.8-1.9c-2.36-1.61-6.36-2.61-5.36-5.61,1-7,10-4,14.6-5.56a38.47,38.47,0,0,1,7.2.64,155.22,155.22,0,0,0,35.59,3l3.72-.15c16.93-.66,23.49-22.44,9.67-32.24l-.4-.28Q731.84,81,705.08,79c-3.57-.28-7.26-.41-11.07-.41-28.94-.6-65.94,5.4-73.94,38.4-.13.42-.25.85-.36,1.27a23.08,23.08,0,0,1-4.28,8.63,44.07,44.07,0,0,1-7.88,7.52c-10.81,8-21-5.82-25.07-12.19a2.57,2.57,0,0,1,.16-3c5.76-7.38,5.54-19.06-3.58-25.52l-.42-.3Q561,81,534.27,79c-3.56-.28-7.25-.41-11.06-.41-29-.6-66,5.4-74,38.4a38.63,38.63,0,0,0,6.42,35.3,2.51,2.51,0,0,1,.26,2.74c-6.57,12.3-13.45,14.55-19.27,13a7.81,7.81,0,0,1-5.6-7.59V156a18.58,18.58,0,0,0-18.58-18.59H360.93a5,5,0,0,1-5-5v-4.22c3.41-10.06,17.41-3.06,25.2-5h43.7a18.58,18.58,0,0,0,18.58-18.59V98A18.58,18.58,0,0,0,424.86,79.4H414.37a120.26,120.26,0,0,0-16.86,1.1c-27.78,3.92-58.19-5.38-83.23,3.4a15.35,15.35,0,0,0-9,8.5l0,.08a21.19,21.19,0,0,0-1.69,8.33v43.11c-.18,25-9.18,50-1.18,76,3,13,20,20,33.08,16.45q5-.84,10.1-1.5c23.57-3.1,47.19-3.28,70.78,1.37,6.68.53,10.78.57,10.78.57a18.58,18.58,0,0,0,18.58-18.58v-6.69A18.58,18.58,0,0,0,427.11,193H360.93a5,5,0,0,1-5-5v-4.22a5,5,0,0,1,5-5h51.56a18.49,18.49,0,0,0,14-6.35,2.57,2.57,0,0,1,3.8-.19c9.13,9,19.9-4.15,26.36-14.53a2.45,2.45,0,0,1,3.71-.53,43.64,43.64,0,0,0,3.57,2.94q15.92,11.78,47.73,15.47,20,2.17,26.77,4.45t6.74,6.19q0,3.15-5.34,4.73t-16,1.57a55.82,55.82,0,0,1-12-1.13,142,142,0,0,0-36.1-3.66l-2.32.09c-18.37.66-25.13,24.49-9.83,34.67l.28.19q20.81,13.69,58.36,13.7A150.87,150.87,0,0,0,556,232.94q3.76-.87,7.31-1.95c13.91-4.05,26.91-10.05,36.91-21.05,19-22,3-56-23.49-63.92-2.52-1-5.25-1.9-8.16-2.75A190.49,190.49,0,0,0,537,137.38q-8.77-1-14.62-1.93a63.26,63.26,0,0,1-8.8-1.9c-2.36-1.61-6.36-2.61-5.36-5.61,1-7,10-4,14.6-5.56a38.66,38.66,0,0,1,7.21.64,154.63,154.63,0,0,0,35.58,3l3.72-.15a18.4,18.4,0,0,0,4.37-.69,2.56,2.56,0,0,1,2.77.91c1.82,2.45,4,5.2,6.15,7.78,3.31,3.87,5.67,7.76,9.53,10.13,5.27,3.22,10.17,3.08,14.52,1.14a5.68,5.68,0,0,1,1.4-.43,32.68,32.68,0,0,1,11.66,0,5.14,5.14,0,0,1,3.39,2.53,36.5,36.5,0,0,0,4.58,6.5,42.49,42.49,0,0,0,7,6.4q15.9,11.78,47.73,15.47,20,2.17,26.77,4.45t6.74,6.19q0,3.15-5.34,4.73t-16,1.57a55.92,55.92,0,0,1-12-1.13,142,142,0,0,0-36.09-3.66h-.24c-16.94.62-25,13.71-17.3,28.84a14.25,14.25,0,0,0,5.67,6.1q20.8,13.69,58.36,13.7a150.87,150.87,0,0,0,33.85-3.48q3.76-.87,7.3-1.95c13.92-4.05,26.92-10.05,36.92-21.05C790.07,187.94,774.07,153.94,747.58,146Zm-134.23-5.43a40.67,40.67,0,0,0,3.53-3.77,1.42,1.42,0,0,1,2.48.61c.19.8.41,1.59.65,2.37a.61.61,0,0,1-.5.79c-1.29.18-3.1.49-5.61,1A.61.61,0,0,1,613.35,140.59Z" style="fill: #e17979"/>
    <path d="M928.52,92.9a14.1,14.1,0,0,1,4.14-10l.05-.05a11.75,11.75,0,0,1,10-3.18c29.83,4.16,58.8-.47,88.84.16,2.44.32,4.8.75,7.08,1.27a67.43,67.43,0,0,1,18.5,7c1.37.78,2.7,1.61,4,2.49,11.24,11.33,20.24,26.33,21.69,42.58,0,2,0,4-.19,5.95q-1.71,20.81-15.65,32.87-1.74,1.5-3.67,2.88c-7.88,14.05,10.12,33.05,19.27,46.25.87,1.61,1.64,3.05,2.28,4.25l2,3.83a5.62,5.62,0,0,1,.45,2.47,4.32,4.32,0,0,1-1.46,3,4.75,4.75,0,0,1-3.49,1.46h-51q-6.75,0-9.45-5.62L1002.06,186H983.17v44.08a6.15,6.15,0,0,1-6.07,6.07H942.66a14.14,14.14,0,0,1-14.14-14.14V183.24a247.81,247.81,0,0,0,0-51.52V92.9Zm54.65,36.66v5.91a9,9,0,0,0,9,9h19.14a9.36,9.36,0,0,0,7.65-3.26,12.43,12.43,0,0,0,2.7-8.21,14.83,14.83,0,0,0-2.59-8.66q-2.58-3.7-7.76-3.71c-8.91.58-17.91-1.42-25.49,2.76A8.58,8.58,0,0,0,983.17,129.56Z" style="fill: #e17979"/>
    <path d="M281.19,65.38A81.11,81.11,0,0,0,242,36a141.63,141.63,0,0,0-26.42-6.51h-.09a101.41,101.41,0,0,0-17-1.05c-26.54.47-51,.4-79.12-1.06a28.6,28.6,0,0,0-8,1,30.06,30.06,0,0,0-15.8,10.62,29.57,29.57,0,0,0-3.36,5.49c-4.85,33.63,2.15,68.63-.48,103.28.07,3.55.12,7.11.14,10.65.06,10.65-.17,21.25-.88,31.77,0,3.74,0,7.43.25,11,1.12,17.86,6.62,32.79,28.13,35.65,2.29-.38,4.58-.7,6.87-1s4.56-.52,6.84-.71a2.68,2.68,0,0,1,2.88,2.87,52.44,52.44,0,0,1-1.26,8.9c-2.53,9.78,10.65,16.33,12.12,5.2.74-5.66-.64-9.74-1.54-14.5a2.69,2.69,0,0,1,2.57-3.2q3-.06,6.07-.06a2.94,2.94,0,0,1,2.93,3.21c-.83,9.21-2.24,22.42-4.08,30.7-3.07,13.79,1,20.77,9.53,19.75s12.59-11.41,9.7-25.53c-1.73-8.43-2.6-17.82-1.87-25a3,3,0,0,1,3.05-2.69c11.63.41,23.28,1,35.08.86q5.55-.61,10.8-1.54,26.24-4.63,44.76-17A70.31,70.31,0,0,0,278,204.59a66.84,66.84,0,0,0,5.55-7.49c18.84-29.93,15.84-66.93,11-99.66q-.86-4.57-2.1-8.86A74.81,74.81,0,0,0,281.19,65.38ZM146.32,78.46a7.2,7.2,0,0,1,10.79-6.23s3.72,2.15,9.8,5.5c10.15,5.07,19.94,10.4,29.53,15.91a3.12,3.12,0,0,1,.31,5.21c-2.91,2.17-6.21,4.58-9.93,7.26-14.32,10.3-29.47,4.48-40.2-2.84a3.41,3.41,0,0,1-1.5-3c.23-3.52.55-7,1-10.58C146.3,82.76,146.32,78.46,146.32,78.46Zm104.19,59.9c-6.14,2.81-12.14,7.81-18,11.26q-4,2.79-8,5.48A437.68,437.68,0,0,1,157.12,192a7.2,7.2,0,0,1-10.8-6.23s0-4.29-.06-11.16c-.89-13.7.11-28.7-1.44-42.27-.07-2.41-.14-4.8-.18-7.18q-.1-5.44,0-10.84a3.4,3.4,0,0,1,5.09-2.92c2.95,1.69,6.42,3.62,10.41,5.74a26.24,26.24,0,0,0,10.24,3.3,15.82,15.82,0,0,0,7.57-1.17c4.28-1.78,7.13-5.1,9.26-7.06,3.05-2.81,10.58-9.48,14.59-13a3.13,3.13,0,0,1,3.67-.35c10.22,6,20.27,12.25,30.37,18.51l6.06,3.77c4.52,3,11.52,4,12.35,11A6.86,6.86,0,0,1,250.51,138.36Z" style="fill: #e17979"/>
    <path d="M904.9,193H838.72a5,5,0,0,1-5-5v-4.22a5,5,0,0,1,5-5h51.56a18.58,18.58,0,0,0,18.58-18.59V156a18.58,18.58,0,0,0-18.58-18.59H838.72a5,5,0,0,1-5-5v-4.22a5,5,0,0,1,5-5c6.65-.09,13.65-.09,20.23,0h43.7a18.58,18.58,0,0,0,18.58-18.59V98A18.58,18.58,0,0,0,902.65,79.4s-4,0-10.37.07c-32.91,4.7-64.91-1.3-97.86,1.61a21.43,21.43,0,0,0-13.08,19.73v28.92c0,2.37,0,4.83,0,7.35.39,7.1.58,14.13.64,21.14v.05a61.47,61.47,0,0,0,.89,9.86c2.62,15.15,3,30-1.77,44.43a13.24,13.24,0,0,0-.6,5.56h0c.48,4.8,2.36,9.43,6.67,12.66a27.09,27.09,0,0,0,5.74,3.59,30.42,30.42,0,0,0,20.32,2q5-.84,10.1-1.5,7.24-1,14.49-1.52a1.88,1.88,0,0,1,2,1.68,20.08,20.08,0,0,1-.89,8.54c-3.8,10.87-6.33,28.07,4.55,24.78s4.55-18,4-23.77a87.5,87.5,0,0,1,.12-10.06,1.88,1.88,0,0,1,1.82-1.79c3.35-.09,6.71-.12,10.06-.06a1.49,1.49,0,0,1,1.46,1.47,29.33,29.33,0,0,1-.35,6.12c-.9,3.7-.9,8.94,4.34,8.43s2-7.41.76-11.24a17.19,17.19,0,0,1-.61-2.84,1.5,1.5,0,0,1,1.55-1.7,191.56,191.56,0,0,1,27.43,3.33c6.68.53,10.78.57,10.78.57a18.58,18.58,0,0,0,18.58-18.58v-6.69A18.58,18.58,0,0,0,904.9,193Z" style="fill: #e17979"/>
    <path d="M1209,78.76H1095.35a19.43,19.43,0,0,0-16.79,9.63,19,19,0,0,0-2,4.64c-2.11,14.78,7.55,31.9,22.52,33.55a2,2,0,0,1,1.75,2.33,17.29,17.29,0,0,1-.73,2.85c-3.79,10.87-6.32,28.07,4.55,24.78s4.55-17.95,4-23.77a49.49,49.49,0,0,1-.08-5.23,1.28,1.28,0,0,1,1.28-1.26h13.49v88.51A22.21,22.21,0,0,0,1145.64,237h13a22.21,22.21,0,0,0,22.21-22.21V126.28h24.68a1.11,1.11,0,0,1,1.11,1.07,33.36,33.36,0,0,1-.33,7.23c-.89,3.7-.89,8.94,4.34,8.42s2-7.4.77-11.23a19.62,19.62,0,0,1-.79-4.49,1.13,1.13,0,0,1,1-1.2,19.43,19.43,0,0,0,16.76-19.24V98.21A19.45,19.45,0,0,0,1209,78.76Z" style="fill: #e17979"/>
    <circle cx="52.35" cy="78.03" r="9.19" style="fill: #e17979"/>
    <path d="M46,77.66c.27-1.9,1.28-5.39,5.13-6.43a1.22,1.22,0,0,1,1.31.46h0a1.18,1.18,0,0,1-.3,1.66,9.07,9.07,0,0,0-3.51,4.86,1.21,1.21,0,0,1-1.4.84L46.9,79A1.19,1.19,0,0,1,46,77.66Z" style="fill: #eab5ae"/>
    <circle cx="760.77" cy="250.44" r="9.19" style="fill: #e17979"/>
    <path d="M754.41,250.07c.27-1.89,1.28-5.39,5.12-6.43a1.21,1.21,0,0,1,1.31.47h0a1.18,1.18,0,0,1-.29,1.65,9.07,9.07,0,0,0-3.52,4.86,1.21,1.21,0,0,1-1.4.84l-.3-.07A1.19,1.19,0,0,1,754.41,250.07Z" style="fill: #eab5ae"/>
    <circle cx="1106.19" cy="244.27" r="4.56" style="fill: #e17979"/>
    <path d="M1103,244.09a3.6,3.6,0,0,1,2.54-3.19.6.6,0,0,1,.65.23h0a.6.6,0,0,1-.15.83,4.42,4.42,0,0,0-1.74,2.41.6.6,0,0,1-.7.41l-.15,0A.59.59,0,0,1,1103,244.09Z" style="fill: #eab5ae"/>
    <circle cx="1087.24" cy="252.9" r="2.72" style="fill: #e17979"/>
    <path d="M1085.36,252.8a2.16,2.16,0,0,1,1.51-1.91.35.35,0,0,1,.39.14h0a.34.34,0,0,1-.08.49,2.63,2.63,0,0,0-1,1.44.35.35,0,0,1-.41.25l-.09,0A.34.34,0,0,1,1085.36,252.8Z" style="fill: #eab5ae"/>
    <circle cx="1119.33" cy="251.9" r="2.72" style="fill: #e17979"/>
    <path d="M1117.44,251.79a2.17,2.17,0,0,1,1.52-1.91.37.37,0,0,1,.39.14h0a.35.35,0,0,1-.09.49,2.75,2.75,0,0,0-1,1.44.35.35,0,0,1-.42.25l-.09,0A.36.36,0,0,1,1117.44,251.79Z" style="fill: #eab5ae"/>
    <circle cx="921.58" cy="53.13" r="6.51" style="fill: #e17979"/>
    <path d="M917.07,52.88a5.18,5.18,0,0,1,3.63-4.56.84.84,0,0,1,.93.33h0a.83.83,0,0,1-.21,1.17,6.45,6.45,0,0,0-2.49,3.44.85.85,0,0,1-1,.6l-.21,0A.84.84,0,0,1,917.07,52.88Z" style="fill: #eab5ae"/>
    <circle cx="1064.31" cy="72.79" r="4.21" style="fill: #e17979"/>
    <path d="M1061.39,72.63a3.33,3.33,0,0,1,2.35-2.95.56.56,0,0,1,.6.21h0a.55.55,0,0,1-.14.76,4.12,4.12,0,0,0-1.61,2.23.55.55,0,0,1-.64.38l-.14,0A.54.54,0,0,1,1061.39,72.63Z" style="fill: #eab5ae"/>
    <circle cx="1076.56" cy="60.2" r="2.85" style="fill: #e17979"/>
    <path d="M1074.59,60.08a2.25,2.25,0,0,1,1.59-2,.37.37,0,0,1,.4.14h0a.37.37,0,0,1-.09.52,2.76,2.76,0,0,0-1.09,1.5.36.36,0,0,1-.43.26l-.1,0A.37.37,0,0,1,1074.59,60.08Z" style="fill: #eab5ae"/>
    <circle cx="605.54" cy="227.29" r="6.13" style="fill: #e17979"/>
    <path d="M601.3,227.05a4.84,4.84,0,0,1,3.41-4.29.81.81,0,0,1,.88.31h0a.79.79,0,0,1-.2,1.1,6.08,6.08,0,0,0-2.35,3.24.79.79,0,0,1-.93.56l-.2-.05A.78.78,0,0,1,601.3,227.05Z" style="fill: #eab5ae"/>
    <circle cx="623.41" cy="242.96" r="5.96" style="fill: #e17979"/>
    <path d="M619.29,242.73a4.71,4.71,0,0,1,3.32-4.17.78.78,0,0,1,.85.3h0a.77.77,0,0,1-.19,1.07,5.87,5.87,0,0,0-2.28,3.15.78.78,0,0,1-.91.54l-.2,0A.76.76,0,0,1,619.29,242.73Z" style="fill: #eab5ae"/>
    <circle cx="446.82" cy="57.35" r="5.36" style="fill: #e17979"/>
    <path d="M443.1,57.13a4.26,4.26,0,0,1,3-3.75.71.71,0,0,1,.77.27h0a.7.7,0,0,1-.17,1,5.27,5.27,0,0,0-2.06,2.83.69.69,0,0,1-.81.49l-.18,0A.7.7,0,0,1,443.1,57.13Z" style="fill: #eab5ae"/>
    <circle cx="458.82" cy="67.98" r="3.4" style="fill: #e17979"/>
    <path d="M456.46,67.85a2.69,2.69,0,0,1,1.9-2.38.43.43,0,0,1,.48.17h0a.43.43,0,0,1-.11.61,3.42,3.42,0,0,0-1.3,1.8.43.43,0,0,1-.52.31l-.11,0A.44.44,0,0,1,456.46,67.85Z" style="fill: #eab5ae"/>
    <circle cx="275.37" cy="233.64" r="7.02" style="fill: #e17979"/>
    <path d="M270.51,233.37a5.58,5.58,0,0,1,3.91-4.92.92.92,0,0,1,1,.36h0a.9.9,0,0,1-.22,1.26,7,7,0,0,0-2.69,3.71.91.91,0,0,1-1.07.64l-.23,0A.9.9,0,0,1,270.51,233.37Z" style="fill: #eab5ae"/>
    <circle cx="285.2" cy="246.79" r="4.34" style="fill: #e17979"/>
    <path d="M282.19,246.62a3.45,3.45,0,0,1,2.42-3,.56.56,0,0,1,.62.22h0a.56.56,0,0,1-.14.79,4.28,4.28,0,0,0-1.66,2.29.56.56,0,0,1-.66.39l-.14,0A.56.56,0,0,1,282.19,246.62Z" style="fill: #eab5ae"/>
    <circle cx="64.43" cy="196.66" r="4.94" style="fill: #e17979"/>
    <path d="M61,196.47A3.9,3.9,0,0,1,63.77,193a.65.65,0,0,1,.7.25h0a.64.64,0,0,1-.16.9,4.89,4.89,0,0,0-1.89,2.6.63.63,0,0,1-.75.45l-.16,0A.64.64,0,0,1,61,196.47Z" style="fill: #eab5ae"/>
    <circle cx="65.8" cy="105.6" r="5.11" style="fill: #e17979"/>
    <path d="M62.26,105.4a4,4,0,0,1,2.85-3.58.69.69,0,0,1,.73.26h0a.66.66,0,0,1-.17.92,5,5,0,0,0-2,2.7.67.67,0,0,1-.78.47l-.17,0A.66.66,0,0,1,62.26,105.4Z" style="fill: #eab5ae"/>
    <circle cx="44.18" cy="121.94" r="2.64" style="fill: #e17979"/>
    <path d="M42.35,121.84A2.1,2.1,0,0,1,43.82,120a.35.35,0,0,1,.38.13h0a.34.34,0,0,1-.09.48,2.6,2.6,0,0,0-1,1.39.35.35,0,0,1-.41.24l-.08,0A.33.33,0,0,1,42.35,121.84Z" style="fill: #eab5ae"/>
    <path d="M212,40c14.66,2.44,53.7,12.87,63.72,48,.68,2.36.28,4.22-2,5.18h0c-2.45,1-3.11-.56-4.14-3-4.5-10.64-21.4-36.22-58.94-40.12a4.79,4.79,0,0,1-4.27-4.9v-.54A4.81,4.81,0,0,1,212,40Z" style="fill: #eab5ae"/>
    <path d="M278.28,97.58c.59,1.58.19,3.33-1.39,3.92a2.75,2.75,0,0,1-3.62-1.85,2.86,2.86,0,0,1,1.48-3.89A2.65,2.65,0,0,1,278.28,97.58Z" style="fill: #eab5ae"/>
    <path d="M597.94,179.87c3,6.73,7,22-12.57,31.81a1.81,1.81,0,0,1-1.59,0h0a1.81,1.81,0,0,1-.31-3.09c4.44-3.34,12.46-11.68,7.51-25.93a3.78,3.78,0,0,1,2-4.7h0A3.76,3.76,0,0,1,597.94,179.87Z" style="fill: #eab5ae"/>
    <path d="M769.77,179.87c3,6.73,7,22-12.57,31.81a1.81,1.81,0,0,1-1.59,0h0a1.81,1.81,0,0,1-.31-3.09c4.44-3.34,12.46-11.68,7.51-25.93a3.78,3.78,0,0,1,2-4.7h0A3.76,3.76,0,0,1,769.77,179.87Z" style="fill: #eab5ae"/>
    <path d="M547.5,85.88c5.46.93,16.9,3.47,25.3,9.46a2,2,0,0,1,.65,2.58h0a2,2,0,0,1-2.54,1c-4.55-1.8-17.19-6.62-24.19-7.31a2.85,2.85,0,0,1-2.56-3h0A2.87,2.87,0,0,1,547.5,85.88Z" style="fill: #eab5ae"/>
    <path d="M720.1,87.42c5.46.92,16.9,3.46,25.3,9.45a2,2,0,0,1,.64,2.58h0a2,2,0,0,1-2.53,1c-4.56-1.81-17.19-6.63-24.19-7.32a2.87,2.87,0,0,1-2.57-3h0A2.87,2.87,0,0,1,720.1,87.42Z" style="fill: #eab5ae"/>
    <path d="M1023.2,86.72c7.33.59,21,2.45,30.32,8.27a2.36,2.36,0,0,1,.87,3h0a2.34,2.34,0,0,1-2.93,1.21c-4.46-1.66-15.83-5.19-28-3.65a4.46,4.46,0,0,1-5.06-4.11h0A4.45,4.45,0,0,1,1023.2,86.72Z" style="fill: #eab5ae"/>
    <path d="M400.16,85.28c7-.35,25.83-1,30.93,2.21a1.7,1.7,0,0,1,.38,2.54h0a1.68,1.68,0,0,1-1.59.56c-2.86-.55-12.29-1.93-29.39-.43a2.45,2.45,0,0,1-2.62-2.07h0A2.44,2.44,0,0,1,400.16,85.28Z" style="fill: #eab5ae"/>
    <path d="M879.65,85.28c7.05-.35,25.83-1,30.93,2.21A1.7,1.7,0,0,1,911,90h0a1.69,1.69,0,0,1-1.6.56c-2.85-.55-12.28-1.93-29.38-.43a2.45,2.45,0,0,1-2.62-2.07h0A2.44,2.44,0,0,1,879.65,85.28Z" style="fill: #eab5ae"/>
    <path d="M1198.7,82.77c6.85-.21,21.24.47,25.19,9.55a1.5,1.5,0,0,1-.81,2h0a1.47,1.47,0,0,1-1.72-.41c-1.68-2-7.24-6.68-22.13-4.7a3.22,3.22,0,0,1-3.59-2.64h0A3.21,3.21,0,0,1,1198.7,82.77Z" style="fill: #eab5ae"/>
  </g>
</svg>
