<svg xmlns="http://www.w3.org/2000/svg" xmlns:xlink="http://www.w3.org/1999/xlink" xmlns:svgjs="http://svgjs.com/svgjs" version="1.1" width="512" height="512" x="0" y="0" viewBox="0 0 512 512" style="enable-background:new 0 0 512 512" xml:space="preserve" class=""><g><path d="M323.751 386.246h-40.062v5.741c0 15.225-12.318 27.568-27.513 27.568-15.195 0-27.513-12.342-27.513-27.568v-5.741h-40.062c-52.831 0-95.659 42.73-95.659 95.441v24.501H419.41v-24.501c0-52.711-42.828-95.441-95.659-95.441z" style="" fill="#a4fcc4" data-original="#a4fcc4"/><path d="M283.689 365.518v26.469c0 15.225-12.318 27.567-27.513 27.567h0c-15.195 0-27.513-12.342-27.513-27.567v-26.469M400.809 221.479a33.268 33.268 0 0 0 1.152-8.707c0-15.465-10.569-28.493-24.968-32.436M138.338 259.397c5.467 60.249 56.846 106.121 117.43 106.121h.816c60.397 0 111.645-45.589 117.378-105.562M135.199 180.38c-14.317 3.995-24.807 16.984-24.807 32.392 0 3.143.437 6.186 1.253 9.072M131.388 137.551C132.263 82.986 171 33.834 226.799 21.348c6.839-1.53 24.159-3.284 32.413-2.872M257.064 111.593c-12.801 1.252-24.191 2.738-32.543 4.495-28.079 5.906-51.845 21.362-68.829 41.862" style="stroke-width:20;stroke-linecap:round;stroke-linejoin:round;stroke-miterlimit:10;" fill="none" stroke="#020288" stroke-width="20" stroke-linecap="round" stroke-linejoin="round" stroke-miterlimit="10" data-original="#020288" class=""/><path d="M380.968 137.808c-.757-54.668-39.528-103.954-95.415-116.46a125.218 125.218 0 0 0-20.439-2.839c-61.264-3.386-67.759 87.23-6.698 93.203 12.801 1.252 24.191 2.738 32.543 4.495 28.379 5.969 52.352 21.693 69.371 42.52M226.288 242.446c-9.047 8.927-23.714 8.927-32.761 0M318.825 242.446c-9.047 8.927-23.714 8.927-32.761 0M295.706 199.173c11.558-11.406 30.297-11.406 41.855 0M174.792 199.173c11.558-11.406 30.297-11.406 41.855 0M283.936 299.671c-15.331 15.129-40.189 15.129-55.52 0" style="stroke-width:20;stroke-linecap:round;stroke-linejoin:round;stroke-miterlimit:10;" fill="none" stroke="#020288" stroke-width="20" stroke-linecap="round" stroke-linejoin="round" stroke-miterlimit="10" data-original="#020288" class=""/><path d="M440.553 15.813V90.7c0 15.767-12.756 28.549-28.492 28.549h0a28.463 28.463 0 0 0-19.714 7.937l-29.046 27.891a14.906 14.906 0 0 0-3.723 15.72v0c2.813 7.952 11.653 11.973 19.479 8.862l60.022-23.858-1.68 39.038-55.931 40.812c-8.197 5.981-11.006 16.948-6.698 26.145v0c5.715 12.202 21.194 16.032 31.921 7.9l58.949-44.69c22.902-17.362 36.36-44.475 36.36-73.25V15.813h-61.447zM71.447 15.813V90.7c0 15.767 12.756 28.549 28.492 28.549h0c7.347 0 14.41 2.844 19.714 7.937l29.046 27.891a14.906 14.906 0 0 1 3.723 15.72h0c-2.813 7.952-11.653 11.973-19.479 8.862l-60.022-23.858 1.68 39.038 55.931 40.812c8.197 5.981 11.006 16.948 6.698 26.145h0c-5.715 12.202-21.194 16.032-31.921 7.9l-58.949-44.69C23.458 207.645 10 180.532 10 151.757V15.813h61.447z" style="stroke-width:20;stroke-linecap:round;stroke-linejoin:round;stroke-miterlimit:10;" fill="none" stroke="#020288" stroke-width="20" stroke-linecap="round" stroke-linejoin="round" stroke-miterlimit="10" data-original="#020288" class=""/></g></svg>