<svg xmlns="http://www.w3.org/2000/svg" xmlns:xlink="http://www.w3.org/1999/xlink" xmlns:svgjs="http://svgjs.com/svgjs" version="1.1" width="512" height="512" x="0" y="0" viewBox="0 0 24 24" style="enable-background:new 0 0 512 512" xml:space="preserve" class=""><g><linearGradient id="a" x1="0" x2="24" y1="-2396" y2="-2396" gradientTransform="matrix(1 0 0 -1 0 -2384)" gradientUnits="userSpaceOnUse"><stop offset="0" stop-color="#da22ff"/><stop offset="1" stop-color="#9733ee"/></linearGradient><circle cx="12" cy="12" r="12" fill="url(#a)" data-original="url(#a)" class=""/><g fill="#fff"><path d="M12 18c-.3 0-.4-.1-.6-.3l-5.1-5.1c-.3-.3-.3-.9 0-1.2l5.1-5.1c.3-.3.9-.3 1.2 0s.3.9 0 1.2L8.1 12l4.5 4.5c.3.3.3.9 0 1.2-.2.2-.3.3-.6.3z" fill="#ffffff" data-original="#ffffff"/><path d="M17.1 18c-.3 0-.4-.1-.6-.3l-5.1-5.1c-.3-.3-.3-.9 0-1.2l5.1-5.1c.3-.3.9-.3 1.2 0s.3.9 0 1.2L13.2 12l4.5 4.5c.3.3.3.9 0 1.2-.1.2-.3.3-.6.3z" fill="#ffffff" data-original="#ffffff"/></g></g></svg>