<svg xmlns="http://www.w3.org/2000/svg" xmlns:xlink="http://www.w3.org/1999/xlink" xmlns:svgjs="http://svgjs.com/svgjs" version="1.1" width="512" height="512" x="0" y="0" viewBox="0 0 682.667 682.667" style="enable-background:new 0 0 512 512" xml:space="preserve"><g><defs><clipPath id="a" clipPathUnits="userSpaceOnUse"><path d="M0 512h512V0H0Z" fill="#000000" data-original="#000000"/></clipPath></defs><path d="M313.477 262.134H197.374v85.226h116.103zM190.477 28.542H74.374v88.683h116.103zM436.477 28.441H320.374v88.785h116.103z" style="fill-opacity:1;fill-rule:nonzero;stroke:none" transform="matrix(1.33333 0 0 -1.33333 0 682.667)" fill="#fff59b" data-original="#fff59b"/><g clip-path="url(#a)" transform="matrix(1.33333 0 0 -1.33333 0 682.667)"><path d="M0 0h-207.314c-10.683 0-19.343 8.66-19.343 19.343v191.448c0 10.683 8.66 19.343 19.343 19.343H0c10.683 0 19.343-8.66 19.343-19.343V19.343C19.343 8.66 10.683 0 0 0Z" style="stroke-width:20;stroke-linecap:round;stroke-linejoin:round;stroke-miterlimit:10;stroke-dasharray:none;stroke-opacity:1" transform="translate(236.657 25.866)" fill="none" stroke="#020288" stroke-width="20" stroke-linecap="round" stroke-linejoin="round" stroke-miterlimit="10" stroke-dasharray="none" stroke-opacity="" data-original="#020288"/><path d="M0 0v-22.568h-115.372V0" style="stroke-width:20;stroke-linecap:round;stroke-linejoin:round;stroke-miterlimit:10;stroke-dasharray:none;stroke-opacity:1" transform="translate(190.232 215.226)" fill="none" stroke="#020288" stroke-width="20" stroke-linecap="round" stroke-linejoin="round" stroke-miterlimit="10" stroke-dasharray="none" stroke-opacity="" data-original="#020288"/><path d="M0 0c0-10.7-8.647-19.373-19.313-19.373h-207.374C-237.353-19.373-246-10.7-246 0v191.388c0 10.699 8.647 19.373 19.313 19.373h207.374C-8.647 210.761 0 202.087 0 191.388Z" style="stroke-width:20;stroke-linecap:round;stroke-linejoin:round;stroke-miterlimit:10;stroke-dasharray:none;stroke-opacity:1" transform="translate(502 45.239)" fill="none" stroke="#020288" stroke-width="20" stroke-linecap="round" stroke-linejoin="round" stroke-miterlimit="10" stroke-dasharray="none" stroke-opacity="" data-original="#020288"/><path d="M0 0v-22.568h-115.372V0" style="stroke-width:20;stroke-linecap:round;stroke-linejoin:round;stroke-miterlimit:10;stroke-dasharray:none;stroke-opacity:1" transform="translate(436.232 215.226)" fill="none" stroke="#020288" stroke-width="20" stroke-linecap="round" stroke-linejoin="round" stroke-miterlimit="10" stroke-dasharray="none" stroke-opacity="" data-original="#020288"/><path d="M0 0h-207.314c-10.683 0-19.343 8.66-19.343 19.343v191.448c0 10.683 8.66 19.343 19.343 19.343H0c10.683 0 19.343-8.66 19.343-19.343V19.343C19.343 8.66 10.683 0 0 0Z" style="stroke-width:20;stroke-linecap:round;stroke-linejoin:round;stroke-miterlimit:10;stroke-dasharray:none;stroke-opacity:1" transform="translate(359.657 256)" fill="none" stroke="#020288" stroke-width="20" stroke-linecap="round" stroke-linejoin="round" stroke-miterlimit="10" stroke-dasharray="none" stroke-opacity="" data-original="#020288"/><path d="M0 0v-22.568h-115.372V0" style="stroke-width:20;stroke-linecap:round;stroke-linejoin:round;stroke-miterlimit:10;stroke-dasharray:none;stroke-opacity:1" transform="translate(313.232 445.36)" fill="none" stroke="#020288" stroke-width="20" stroke-linecap="round" stroke-linejoin="round" stroke-miterlimit="10" stroke-dasharray="none" stroke-opacity="" data-original="#020288"/></g></g></svg>